<?xml version="1.0" standalone="no"?>
<!DOCTYPE svg PUBLIC "-//W3C//DTD SVG 20010904//EN"
 "http://www.w3.org/TR/2001/REC-SVG-20010904/DTD/svg10.dtd">
<svg version="1.0" xmlns="http://www.w3.org/2000/svg"
 width="1024.000000pt" height="1024.000000pt" viewBox="0 0 1024.000000 1024.000000"
 preserveAspectRatio="xMidYMid meet">
<metadata>
Created by potrace 1.14, written by Peter Selinger 2001-2017
</metadata>
<g transform="translate(0.000000,1024.000000) scale(0.100000,-0.100000)"
fill="#000000" stroke="none">
<path d="M5047 9174 c-1 -1 -56 -4 -122 -8 -233 -11 -506 -49 -680 -93 -33 -8
-67 -16 -75 -18 -124 -25 -509 -151 -555 -182 -11 -7 -25 -13 -32 -13 -24 0
-364 -165 -444 -216 -21 -13 -41 -24 -44 -24 -4 0 -33 -18 -65 -40 -32 -22
-61 -40 -64 -40 -12 0 -252 -172 -356 -256 -591 -474 -1009 -1057 -1282 -1784
-22 -58 -41 -114 -44 -124 -2 -11 -12 -47 -23 -80 -17 -54 -56 -193 -66 -236
-21 -92 -65 -329 -70 -380 -4 -36 -8 -72 -10 -80 -4 -21 -14 -120 -21 -210
-12 -160 -7 -519 11 -670 2 -19 7 -60 10 -90 11 -101 22 -172 41 -270 8 -41
17 -86 20 -100 28 -145 99 -387 164 -560 18 -47 39 -102 46 -123 14 -37 58
-135 112 -247 151 -313 401 -679 647 -949 386 -423 901 -788 1410 -1000 44
-19 94 -40 112 -47 127 -56 511 -167 688 -200 50 -9 97 -18 107 -19 9 -2 38
-7 65 -11 26 -3 55 -8 63 -9 8 -2 47 -6 85 -10 39 -4 79 -9 90 -11 25 -5 310
-17 390 -17 80 0 368 14 375 18 3 2 37 6 75 9 82 8 89 9 218 30 81 13 224 43
297 61 211 54 464 138 610 202 93 42 323 155 390 193 151 85 406 253 507 333
38 31 219 183 234 197 195 184 361 361 472 505 249 323 437 649 577 998 70
176 151 426 174 537 3 14 19 88 35 165 16 77 32 160 35 185 3 25 8 55 10 67 3
12 7 50 11 85 3 35 8 79 10 98 21 174 21 538 0 735 -2 22 -7 72 -10 110 -6 58
-36 248 -60 370 -14 70 -57 237 -85 330 -17 55 -33 107 -35 115 -24 89 -143
375 -222 533 -147 295 -401 669 -603 887 -314 340 -662 623 -994 809 -170 96
-260 141 -397 202 -179 79 -520 196 -618 214 -16 3 -41 9 -54 14 -13 5 -41 12
-63 15 -21 4 -46 8 -54 11 -8 2 -26 6 -40 9 -30 5 -97 17 -125 22 -49 10 -242
35 -293 39 -164 13 -248 17 -360 18 -68 1 -124 2 -125 1z"/>
</g>
</svg>
